<svg xmlns="http://www.w3.org/2000/svg" viewBox="0 0 600 600" width="600" height="600">
<rect width="600" height="600" fill="white"/>
<text x="300.0" y="30" text-anchor="middle" font-family="Arial" font-size="18" font-weight="bold" fill="#333">Crochet Pattern Diagram</text>
<circle cx="300.0" cy="300.0" r="41.8" fill="none" stroke="#F39C12" stroke-width="2" opacity="0.8"/>
<circle cx="300.0" cy="258.2" r="4.0" fill="#555" opacity="0.5"/>
<circle cx="336.2" cy="279.1" r="4.0" fill="#555" opacity="0.5"/>
<circle cx="336.2" cy="320.9" r="4.0" fill="#555" opacity="0.5"/>
<circle cx="300.0" cy="341.8" r="4.0" fill="#555" opacity="0.5"/>
<circle cx="263.8" cy="320.9" r="4.0" fill="#555" opacity="0.5"/>
<circle cx="263.8" cy="279.1" r="4.0" fill="#555" opacity="0.5"/>
<text x="346.8" y="297.0" font-family="Arial" font-size="10" fill="#666" dominant-baseline="middle">R1</text>
<circle cx="300.0" cy="300.0" r="63.6" fill="none" stroke="#2ECC71" stroke-width="2" opacity="0.8"/>
<circle cx="300.0" cy="236.4" r="4.0" fill="#555" opacity="0.5"/>
<circle cx="300.0" cy="363.6" r="4.0" fill="#555" opacity="0.5"/>
<text x="368.6" y="297.0" font-family="Arial" font-size="10" fill="#666" dominant-baseline="middle">R2</text>
<circle cx="300.0" cy="300.0" r="85.5" fill="none" stroke="#4A90D9" stroke-width="2" opacity="0.8"/>
<circle cx="300.0" cy="214.5" r="4.0" fill="#555" opacity="0.5"/>
<circle cx="329.2" cy="219.7" r="4.0" fill="#555" opacity="0.5"/>
<circle cx="354.9" cy="234.5" r="4.0" fill="#555" opacity="0.5"/>
<circle cx="374.0" cy="257.3" r="4.0" fill="#555" opacity="0.5"/>
<circle cx="384.2" cy="285.2" r="4.0" fill="#555" opacity="0.5"/>
<circle cx="384.2" cy="314.8" r="4.0" fill="#555" opacity="0.5"/>
<circle cx="374.0" cy="342.7" r="4.0" fill="#555" opacity="0.5"/>
<circle cx="354.9" cy="365.5" r="4.0" fill="#555" opacity="0.5"/>
<circle cx="329.2" cy="380.3" r="4.0" fill="#555" opacity="0.5"/>
<circle cx="300.0" cy="385.5" r="4.0" fill="#555" opacity="0.5"/>
<circle cx="270.8" cy="380.3" r="4.0" fill="#555" opacity="0.5"/>
<circle cx="245.1" cy="365.5" r="4.0" fill="#555" opacity="0.5"/>
<circle cx="226.0" cy="342.7" r="4.0" fill="#555" opacity="0.5"/>
<circle cx="215.8" cy="314.8" r="4.0" fill="#555" opacity="0.5"/>
<circle cx="215.8" cy="285.2" r="4.0" fill="#555" opacity="0.5"/>
<circle cx="226.0" cy="257.3" r="4.0" fill="#555" opacity="0.5"/>
<circle cx="245.1" cy="234.5" r="4.0" fill="#555" opacity="0.5"/>
<circle cx="270.8" cy="219.7" r="4.0" fill="#555" opacity="0.5"/>
<text x="390.5" y="297.0" font-family="Arial" font-size="10" fill="#666" dominant-baseline="middle">R3</text>
<circle cx="300.0" cy="300.0" r="107.3" fill="none" stroke="#4A90D9" stroke-width="2" opacity="0.8"/>
<circle cx="300.0" cy="192.7" r="4.0" fill="#555" opacity="0.5"/>
<circle cx="327.8" cy="196.4" r="4.0" fill="#555" opacity="0.5"/>
<circle cx="353.6" cy="207.1" r="4.0" fill="#555" opacity="0.5"/>
<circle cx="375.9" cy="224.1" r="4.0" fill="#555" opacity="0.5"/>
<circle cx="392.9" cy="246.4" r="4.0" fill="#555" opacity="0.5"/>
<circle cx="403.6" cy="272.2" r="4.0" fill="#555" opacity="0.5"/>
<circle cx="407.3" cy="300.0" r="4.0" fill="#555" opacity="0.5"/>
<circle cx="403.6" cy="327.8" r="4.0" fill="#555" opacity="0.5"/>
<circle cx="392.9" cy="353.6" r="4.0" fill="#555" opacity="0.5"/>
<circle cx="375.9" cy="375.9" r="4.0" fill="#555" opacity="0.5"/>
<circle cx="353.6" cy="392.9" r="4.0" fill="#555" opacity="0.5"/>
<circle cx="327.8" cy="403.6" r="4.0" fill="#555" opacity="0.5"/>
<circle cx="300.0" cy="407.3" r="4.0" fill="#555" opacity="0.5"/>
<circle cx="272.2" cy="403.6" r="4.0" fill="#555" opacity="0.5"/>
<circle cx="246.4" cy="392.9" r="4.0" fill="#555" opacity="0.5"/>
<circle cx="224.1" cy="375.9" r="4.0" fill="#555" opacity="0.5"/>
<circle cx="207.1" cy="353.6" r="4.0" fill="#555" opacity="0.5"/>
<circle cx="196.4" cy="327.8" r="4.0" fill="#555" opacity="0.5"/>
<circle cx="192.7" cy="300.0" r="4.0" fill="#555" opacity="0.5"/>
<circle cx="196.4" cy="272.2" r="4.0" fill="#555" opacity="0.5"/>
<circle cx="207.1" cy="246.4" r="4.0" fill="#555" opacity="0.5"/>
<circle cx="224.1" cy="224.1" r="4.0" fill="#555" opacity="0.5"/>
<circle cx="246.4" cy="207.1" r="4.0" fill="#555" opacity="0.5"/>
<circle cx="272.2" cy="196.4" r="4.0" fill="#555" opacity="0.5"/>
<text x="412.3" y="297.0" font-family="Arial" font-size="10" fill="#666" dominant-baseline="middle">R4</text>
<circle cx="300.0" cy="300.0" r="129.1" fill="none" stroke="#4A90D9" stroke-width="2" opacity="0.8"/>
<circle cx="300.0" cy="170.9" r="4.0" fill="#555" opacity="0.5"/>
<circle cx="326.8" cy="173.7" r="4.0" fill="#555" opacity="0.5"/>
<circle cx="352.5" cy="182.1" r="4.0" fill="#555" opacity="0.5"/>
<circle cx="375.9" cy="195.6" r="4.0" fill="#555" opacity="0.5"/>
<circle cx="395.9" cy="213.6" r="4.0" fill="#555" opacity="0.5"/>
<circle cx="411.8" cy="235.5" r="4.0" fill="#555" opacity="0.5"/>
<circle cx="422.8" cy="260.1" r="4.0" fill="#555" opacity="0.5"/>
<circle cx="428.4" cy="286.5" r="4.0" fill="#555" opacity="0.5"/>
<circle cx="428.4" cy="313.5" r="4.0" fill="#555" opacity="0.5"/>
<circle cx="422.8" cy="339.9" r="4.0" fill="#555" opacity="0.5"/>
<circle cx="411.8" cy="364.5" r="4.0" fill="#555" opacity="0.5"/>
<circle cx="395.9" cy="386.4" r="4.0" fill="#555" opacity="0.5"/>
<circle cx="375.9" cy="404.4" r="4.0" fill="#555" opacity="0.5"/>
<circle cx="352.5" cy="417.9" r="4.0" fill="#555" opacity="0.5"/>
<circle cx="326.8" cy="426.3" r="4.0" fill="#555" opacity="0.5"/>
<circle cx="300.0" cy="429.1" r="4.0" fill="#555" opacity="0.5"/>
<circle cx="273.2" cy="426.3" r="4.0" fill="#555" opacity="0.5"/>
<circle cx="247.5" cy="417.9" r="4.0" fill="#555" opacity="0.5"/>
<circle cx="224.1" cy="404.4" r="4.0" fill="#555" opacity="0.5"/>
<circle cx="204.1" cy="386.4" r="4.0" fill="#555" opacity="0.5"/>
<circle cx="188.2" cy="364.5" r="4.0" fill="#555" opacity="0.5"/>
<circle cx="177.2" cy="339.9" r="4.0" fill="#555" opacity="0.5"/>
<circle cx="171.6" cy="313.5" r="4.0" fill="#555" opacity="0.5"/>
<circle cx="171.6" cy="286.5" r="4.0" fill="#555" opacity="0.5"/>
<circle cx="177.2" cy="260.1" r="4.0" fill="#555" opacity="0.5"/>
<circle cx="188.2" cy="235.5" r="4.0" fill="#555" opacity="0.5"/>
<circle cx="204.1" cy="213.6" r="4.0" fill="#555" opacity="0.5"/>
<circle cx="224.1" cy="195.6" r="4.0" fill="#555" opacity="0.5"/>
<circle cx="247.5" cy="182.1" r="4.0" fill="#555" opacity="0.5"/>
<circle cx="273.2" cy="173.7" r="4.0" fill="#555" opacity="0.5"/>
<text x="434.1" y="297.0" font-family="Arial" font-size="10" fill="#666" dominant-baseline="middle">R5</text>
<circle cx="300.0" cy="300.0" r="150.9" fill="none" stroke="#4A90D9" stroke-width="2" opacity="0.8"/>
<circle cx="300.0" cy="149.1" r="4.0" fill="#555" opacity="0.5"/>
<circle cx="326.2" cy="151.4" r="4.0" fill="#555" opacity="0.5"/>
<circle cx="351.6" cy="158.2" r="4.0" fill="#555" opacity="0.5"/>
<circle cx="375.5" cy="169.3" r="4.0" fill="#555" opacity="0.5"/>
<circle cx="397.0" cy="184.4" r="4.0" fill="#555" opacity="0.5"/>
<circle cx="415.6" cy="203.0" r="4.0" fill="#555" opacity="0.5"/>
<circle cx="430.7" cy="224.5" r="4.0" fill="#555" opacity="0.5"/>
<circle cx="441.8" cy="248.4" r="4.0" fill="#555" opacity="0.5"/>
<circle cx="448.6" cy="273.8" r="4.0" fill="#555" opacity="0.5"/>
<circle cx="450.9" cy="300.0" r="4.0" fill="#555" opacity="0.5"/>
<circle cx="448.6" cy="326.2" r="4.0" fill="#555" opacity="0.5"/>
<circle cx="441.8" cy="351.6" r="4.0" fill="#555" opacity="0.5"/>
<circle cx="430.7" cy="375.5" r="4.0" fill="#555" opacity="0.5"/>
<circle cx="415.6" cy="397.0" r="4.0" fill="#555" opacity="0.5"/>
<circle cx="397.0" cy="415.6" r="4.0" fill="#555" opacity="0.5"/>
<circle cx="375.5" cy="430.7" r="4.0" fill="#555" opacity="0.5"/>
<circle cx="351.6" cy="441.8" r="4.0" fill="#555" opacity="0.5"/>
<circle cx="326.2" cy="448.6" r="4.0" fill="#555" opacity="0.5"/>
<circle cx="300.0" cy="450.9" r="4.0" fill="#555" opacity="0.5"/>
<circle cx="273.8" cy="448.6" r="4.0" fill="#555" opacity="0.5"/>
<circle cx="248.4" cy="441.8" r="4.0" fill="#555" opacity="0.5"/>
<circle cx="224.5" cy="430.7" r="4.0" fill="#555" opacity="0.5"/>
<circle cx="203.0" cy="415.6" r="4.0" fill="#555" opacity="0.5"/>
<circle cx="184.4" cy="397.0" r="4.0" fill="#555" opacity="0.5"/>
<circle cx="169.3" cy="375.5" r="4.0" fill="#555" opacity="0.5"/>
<circle cx="158.2" cy="351.6" r="4.0" fill="#555" opacity="0.5"/>
<circle cx="151.4" cy="326.2" r="4.0" fill="#555" opacity="0.5"/>
<circle cx="149.1" cy="300.0" r="4.0" fill="#555" opacity="0.5"/>
<circle cx="151.4" cy="273.8" r="4.0" fill="#555" opacity="0.5"/>
<circle cx="158.2" cy="248.4" r="4.0" fill="#555" opacity="0.5"/>
<circle cx="169.3" cy="224.5" r="4.0" fill="#555" opacity="0.5"/>
<circle cx="184.4" cy="203.0" r="4.0" fill="#555" opacity="0.5"/>
<circle cx="203.0" cy="184.4" r="4.0" fill="#555" opacity="0.5"/>
<circle cx="224.5" cy="169.3" r="4.0" fill="#555" opacity="0.5"/>
<circle cx="248.4" cy="158.2" r="4.0" fill="#555" opacity="0.5"/>
<circle cx="273.8" cy="151.4" r="4.0" fill="#555" opacity="0.5"/>
<text x="455.9" y="297.0" font-family="Arial" font-size="10" fill="#666" dominant-baseline="middle">R6</text>
<circle cx="300.0" cy="300.0" r="172.7" fill="none" stroke="#4A90D9" stroke-width="2" opacity="0.8"/>
<circle cx="300.0" cy="127.3" r="4.0" fill="#555" opacity="0.5"/>
<text x="477.7" y="297.0" font-family="Arial" font-size="10" fill="#666" dominant-baseline="middle">R7</text>
<circle cx="300.0" cy="300.0" r="194.5" fill="none" stroke="#4A90D9" stroke-width="2" opacity="0.8"/>
<circle cx="300.0" cy="105.5" r="4.0" fill="#555" opacity="0.5"/>
<text x="499.5" y="297.0" font-family="Arial" font-size="10" fill="#666" dominant-baseline="middle">R8</text>
<circle cx="300.0" cy="300.0" r="216.4" fill="none" stroke="#4A90D9" stroke-width="2" opacity="0.8"/>
<circle cx="300.0" cy="83.6" r="4.0" fill="#555" opacity="0.5"/>
<circle cx="345.0" cy="88.4" r="4.0" fill="#555" opacity="0.5"/>
<circle cx="388.0" cy="102.3" r="4.0" fill="#555" opacity="0.5"/>
<circle cx="427.2" cy="125.0" r="4.0" fill="#555" opacity="0.5"/>
<circle cx="460.8" cy="155.2" r="4.0" fill="#555" opacity="0.5"/>
<circle cx="487.4" cy="191.8" r="4.0" fill="#555" opacity="0.5"/>
<circle cx="505.8" cy="233.1" r="4.0" fill="#555" opacity="0.5"/>
<circle cx="515.2" cy="277.4" r="4.0" fill="#555" opacity="0.5"/>
<circle cx="515.2" cy="322.6" r="4.0" fill="#555" opacity="0.5"/>
<circle cx="505.8" cy="366.9" r="4.0" fill="#555" opacity="0.5"/>
<circle cx="487.4" cy="408.2" r="4.0" fill="#555" opacity="0.5"/>
<circle cx="460.8" cy="444.8" r="4.0" fill="#555" opacity="0.5"/>
<circle cx="427.2" cy="475.0" r="4.0" fill="#555" opacity="0.5"/>
<circle cx="388.0" cy="497.7" r="4.0" fill="#555" opacity="0.5"/>
<circle cx="345.0" cy="511.6" r="4.0" fill="#555" opacity="0.5"/>
<circle cx="300.0" cy="516.4" r="4.0" fill="#555" opacity="0.5"/>
<circle cx="255.0" cy="511.6" r="4.0" fill="#555" opacity="0.5"/>
<circle cx="212.0" cy="497.7" r="4.0" fill="#555" opacity="0.5"/>
<circle cx="172.8" cy="475.0" r="4.0" fill="#555" opacity="0.5"/>
<circle cx="139.2" cy="444.8" r="4.0" fill="#555" opacity="0.5"/>
<circle cx="112.6" cy="408.2" r="4.0" fill="#555" opacity="0.5"/>
<circle cx="94.2" cy="366.9" r="4.0" fill="#555" opacity="0.5"/>
<circle cx="84.8" cy="322.6" r="4.0" fill="#555" opacity="0.5"/>
<circle cx="84.8" cy="277.4" r="4.0" fill="#555" opacity="0.5"/>
<circle cx="94.2" cy="233.1" r="4.0" fill="#555" opacity="0.5"/>
<circle cx="112.6" cy="191.8" r="4.0" fill="#555" opacity="0.5"/>
<circle cx="139.2" cy="155.2" r="4.0" fill="#555" opacity="0.5"/>
<circle cx="172.8" cy="125.0" r="4.0" fill="#555" opacity="0.5"/>
<circle cx="212.0" cy="102.3" r="4.0" fill="#555" opacity="0.5"/>
<circle cx="255.0" cy="88.4" r="4.0" fill="#555" opacity="0.5"/>
<text x="521.4" y="297.0" font-family="Arial" font-size="10" fill="#666" dominant-baseline="middle">R9</text>
<circle cx="300.0" cy="300.0" r="238.2" fill="none" stroke="#4A90D9" stroke-width="2" opacity="0.8"/>
<circle cx="300.0" cy="61.8" r="4.0" fill="#555" opacity="0.5"/>
<circle cx="361.6" cy="69.9" r="4.0" fill="#555" opacity="0.5"/>
<circle cx="419.1" cy="93.7" r="4.0" fill="#555" opacity="0.5"/>
<circle cx="468.4" cy="131.6" r="4.0" fill="#555" opacity="0.5"/>
<circle cx="506.3" cy="180.9" r="4.0" fill="#555" opacity="0.5"/>
<circle cx="530.1" cy="238.4" r="4.0" fill="#555" opacity="0.5"/>
<circle cx="538.2" cy="300.0" r="4.0" fill="#555" opacity="0.5"/>
<circle cx="530.1" cy="361.6" r="4.0" fill="#555" opacity="0.5"/>
<circle cx="506.3" cy="419.1" r="4.0" fill="#555" opacity="0.5"/>
<circle cx="468.4" cy="468.4" r="4.0" fill="#555" opacity="0.5"/>
<circle cx="419.1" cy="506.3" r="4.0" fill="#555" opacity="0.5"/>
<circle cx="361.6" cy="530.1" r="4.0" fill="#555" opacity="0.5"/>
<circle cx="300.0" cy="538.2" r="4.0" fill="#555" opacity="0.5"/>
<circle cx="238.4" cy="530.1" r="4.0" fill="#555" opacity="0.5"/>
<circle cx="180.9" cy="506.3" r="4.0" fill="#555" opacity="0.5"/>
<circle cx="131.6" cy="468.4" r="4.0" fill="#555" opacity="0.5"/>
<circle cx="93.7" cy="419.1" r="4.0" fill="#555" opacity="0.5"/>
<circle cx="69.9" cy="361.6" r="4.0" fill="#555" opacity="0.5"/>
<circle cx="61.8" cy="300.0" r="4.0" fill="#555" opacity="0.5"/>
<circle cx="69.9" cy="238.4" r="4.0" fill="#555" opacity="0.5"/>
<circle cx="93.7" cy="180.9" r="4.0" fill="#555" opacity="0.5"/>
<circle cx="131.6" cy="131.6" r="4.0" fill="#555" opacity="0.5"/>
<circle cx="180.9" cy="93.7" r="4.0" fill="#555" opacity="0.5"/>
<circle cx="238.4" cy="69.9" r="4.0" fill="#555" opacity="0.5"/>
<text x="543.2" y="297.0" font-family="Arial" font-size="10" fill="#666" dominant-baseline="middle">R10</text>
<circle cx="300.0" cy="300.0" r="260.0" fill="none" stroke="#4A90D9" stroke-width="2" opacity="0.8"/>
<circle cx="300.0" cy="40.0" r="4.0" fill="#555" opacity="0.5"/>
<circle cx="388.9" cy="55.7" r="4.0" fill="#555" opacity="0.5"/>
<circle cx="467.1" cy="100.8" r="4.0" fill="#555" opacity="0.5"/>
<circle cx="525.2" cy="170.0" r="4.0" fill="#555" opacity="0.5"/>
<circle cx="556.1" cy="254.9" r="4.0" fill="#555" opacity="0.5"/>
<circle cx="556.1" cy="345.1" r="4.0" fill="#555" opacity="0.5"/>
<circle cx="525.2" cy="430.0" r="4.0" fill="#555" opacity="0.5"/>
<circle cx="467.1" cy="499.2" r="4.0" fill="#555" opacity="0.5"/>
<circle cx="388.9" cy="544.3" r="4.0" fill="#555" opacity="0.5"/>
<circle cx="300.0" cy="560.0" r="4.0" fill="#555" opacity="0.5"/>
<circle cx="211.1" cy="544.3" r="4.0" fill="#555" opacity="0.5"/>
<circle cx="132.9" cy="499.2" r="4.0" fill="#555" opacity="0.5"/>
<circle cx="74.8" cy="430.0" r="4.0" fill="#555" opacity="0.5"/>
<circle cx="43.9" cy="345.1" r="4.0" fill="#555" opacity="0.5"/>
<circle cx="43.9" cy="254.9" r="4.0" fill="#555" opacity="0.5"/>
<circle cx="74.8" cy="170.0" r="4.0" fill="#555" opacity="0.5"/>
<circle cx="132.9" cy="100.8" r="4.0" fill="#555" opacity="0.5"/>
<circle cx="211.1" cy="55.7" r="4.0" fill="#555" opacity="0.5"/>
<text x="565.0" y="297.0" font-family="Arial" font-size="10" fill="#666" dominant-baseline="middle">R11</text>
<circle cx="300.0" cy="300.0" r="5" fill="#F39C12" stroke="#333"/>
<text x="300.0" y="318.0" text-anchor="middle" font-size="9" fill="#666" font-family="Arial">MR</text>
</svg>